<svg xmlns="http://www.w3.org/2000/svg" viewBox="0 0 300 200">
  <defs>
    <linearGradient id="tealBlueGradient" x1="0%" y1="0%" x2="100%" y2="100%">
      <stop offset="0%" stop-color="#00a8b5"/>
      <stop offset="100%" stop-color="#0077b6"/>
    </linearGradient>
  </defs>
  <g transform="translate(50, 20)">
    <path d="M100,10 L10,90 H30 V160 H170 V90 H190 L100,10 Z" fill="none" stroke="url(#tealBlueGradient)" stroke-width="5" stroke-linejoin="round"/>
    <path d="M170,30 L170,50 M160,40 L180,40" fill="none" stroke="url(#tealBlueGradient)" stroke-width="5" stroke-linecap="round"/>
    <path d="M30,110 C30,110 50,130 70,130 C90,130 110,110 110,110" fill="none" stroke="url(#tealBlueGradient)" stroke-width="5" stroke-linecap="round"/>
    <circle cx="30" cy="110" r="5" fill="url(#tealBlueGradient)"/>
    <circle cx="110" cy="110" r="5" fill="url(#tealBlueGradient)"/>
    <path d="M170,110 C170,110 150,130 130,130 C110,130 90,110 90,110" fill="none" stroke="url(#tealBlueGradient)" stroke-width="5" stroke-linecap="round"/>
    <circle cx="170" cy="110" r="5" fill="url(#tealBlueGradient)"/>
    <circle cx="90" cy="110" r="5" fill="url(#tealBlueGradient)"/>
    <path d="M70,50 L90,70 M130,50 L110,70" fill="none" stroke="url(#tealBlueGradient)" stroke-width="5" stroke-linecap="round"/>
    <circle cx="70" cy="50" r="5" fill="url(#tealBlueGradient)"/>
    <circle cx="130" cy="50" r="5" fill="url(#tealBlueGradient)"/>

    <path d="M70,80 L100,65 L130,80 L130,115 L100,130 L70,115 Z" fill="none" stroke="url(#tealBlueGradient)" stroke-width="5" stroke-linejoin="round"/>
    <path d="M100,65 L115,90 M130,80 L105,105 M130,115 L100,105 M100,130 L85,105 M70,115 L95,90 M70,80 L100,90" fill="none" stroke="url(#tealBlueGradient)" stroke-width="3" stroke-linecap="round"/>

    <path d="M100,75 L120,85 V110 C120,125 100,135 100,135 C100,135 80,125 80,110 V85 L100,75 Z" fill="#4CAF50"/>
    <path d="M100,75 V135" stroke="#388E3C" stroke-width="3"/>

    <text x="100" y="190" font-family="sans-serif" font-size="32" font-weight="bold" fill="#333333" text-anchor="middle">HomeSec</text>
  </g>
</svg>
